<svg width="38" height="34" viewBox="0 0 38 34" fill="none" xmlns="http://www.w3.org/2000/svg">
<path d="M32.9589 22.2158L28.085 18.9972C27.819 18.8214 27.4587 18.8951 27.2826 19.1641C27.1069 19.4326 27.1814 19.7939 27.4486 19.9701L31.4775 22.6306L14.5822 28.6603L2.53176 20.6484L9.42065 18.1291C9.72109 18.0193 9.87672 17.6852 9.76666 17.3829C9.65737 17.0809 9.3245 16.9246 9.02444 17.0352L1.04617 19.953C0.754995 20.0593 0.602072 20.3764 0.692822 20.6709V24.1301C0.692822 24.198 0.706724 24.262 0.727963 24.3226C0.731825 24.5069 0.822189 24.6862 0.986697 24.7956L14.1837 33.5697C14.2821 33.6349 14.3934 33.6663 14.503 33.6663C14.6177 33.6663 14.7286 33.6283 14.8251 33.5635L33.0033 27.0762C33.2172 26.9998 33.3566 26.8093 33.3821 26.597C33.4142 26.5248 33.4327 26.4453 33.4327 26.361V22.7874C33.4323 22.5022 33.228 22.2658 32.9589 22.2158ZM1.85133 21.5922L13.9242 29.6188V32.0011L1.85133 23.9745V21.5922ZM15.0827 29.717L32.2742 23.5817V26.1007L15.0827 32.2359V29.717Z" fill="white"/>
<path d="M37.3332 9.87531C37.3332 9.58483 37.1293 9.34381 36.8602 9.29276L23.7949 0.42913C23.7845 0.422006 23.7729 0.418049 23.7625 0.411717C23.7447 0.401427 23.7273 0.391138 23.7084 0.382827C23.6906 0.374912 23.6729 0.36858 23.6551 0.362644C23.6377 0.356707 23.6208 0.351167 23.603 0.347209C23.5837 0.342856 23.5644 0.340086 23.5447 0.337711C23.5273 0.335733 23.5099 0.333358 23.4922 0.332962C23.4721 0.332567 23.4524 0.333754 23.4323 0.335337C23.4149 0.336524 23.3976 0.338107 23.3798 0.340877C23.3593 0.344439 23.3392 0.34998 23.3192 0.355916C23.3072 0.359478 23.2952 0.360665 23.2833 0.364622L4.95312 6.97722C4.65693 7.08408 4.50015 7.41255 4.59476 7.71688V11.2399C4.59476 11.3071 4.60789 11.3708 4.62836 11.431C4.63106 11.6206 4.72181 11.8058 4.88747 11.9182L18.0817 20.8693C18.1802 20.9357 18.291 20.9678 18.4011 20.9678C18.5161 20.9678 18.6273 20.929 18.7239 20.8621L36.9019 14.2499C37.115 14.1724 37.2537 13.9796 37.2803 13.7643C37.3135 13.6896 37.3332 13.6068 37.3332 13.5194V9.87531ZM23.396 1.58235L35.382 9.71384L18.4802 15.8614L6.44562 7.69709L23.396 1.58235ZM5.75324 8.65125L17.8222 16.8389V19.2688L5.75324 11.0812V8.65125ZM18.9807 16.9391L36.1747 10.685V13.2538L18.9807 19.5083V16.9391Z" fill="white"/>
</svg>
