<svg width="34" height="38" viewBox="0 0 34 38" fill="none" xmlns="http://www.w3.org/2000/svg">
<path d="M33.257 3.3284H29.2111V2.6065C29.2111 1.16917 28.0493 0 26.6216 0C25.1895 0 24.0247 1.16967 24.0247 2.6065V3.3284H19.5873V2.6065C19.5873 1.16917 18.4239 0 16.9943 0C15.5627 0 14.3979 1.16967 14.3979 2.6065V3.3284H9.96046V2.6065C9.96046 1.16917 8.79714 0 7.3675 0C5.93736 0 4.77405 1.16967 4.77405 2.6065V3.3284H0.742542C0.332164 3.3284 0 3.66273 0 4.07468V36.7537C0 37.1657 0.332164 37.5 0.742542 37.5H33.2575C33.6678 37.5 34 37.1657 34 36.7537V4.07468C33.9995 3.66273 33.6673 3.3284 33.257 3.3284ZM25.5093 2.6065C25.5093 1.99256 26.0083 1.49256 26.6211 1.49256C27.23 1.49256 27.7255 1.99256 27.7255 2.6065V6.08416C27.7255 6.69859 27.23 7.1986 26.6211 7.1986C26.0083 7.1986 25.5093 6.69859 25.5093 6.08416V2.6065ZM15.883 2.6065C15.883 1.99256 16.3815 1.49256 16.9943 1.49256C17.6052 1.49256 18.1022 1.99256 18.1022 2.6065V6.08416C18.1022 6.69859 17.6052 7.1986 16.9943 7.1986C16.3815 7.1986 15.883 6.69859 15.883 6.08416V2.6065ZM6.25913 2.6065C6.25913 1.99256 6.75614 1.49256 7.3675 1.49256C7.97836 1.49256 8.47537 1.99256 8.47537 2.6065V6.08416C8.47537 6.69859 7.97836 7.1986 7.3675 7.1986C6.75664 7.1986 6.25913 6.69859 6.25913 6.08416V2.6065ZM32.5144 36.0069H1.48459V4.82046H4.77355V6.08366C4.77355 7.52149 5.93687 8.69066 7.36701 8.69066C8.79665 8.69066 9.95996 7.52099 9.95996 6.08366V4.82046H14.3974V6.08366C14.3974 7.52149 15.5622 8.69066 16.9938 8.69066C18.4235 8.69066 19.5868 7.52099 19.5868 6.08366V4.82046H24.0242V6.08366C24.0242 7.52149 25.1895 8.69066 26.6211 8.69066C28.0493 8.69066 29.2106 7.52099 29.2106 6.08366V4.82046H32.5139V36.0069H32.5144Z" fill="white"/>
<path d="M24.2167 15.2492L15.9494 24.6658L11.7541 20.4002C11.4671 20.1084 11.0023 20.1084 10.7153 20.4002C10.4282 20.6921 10.4282 21.1647 10.7153 21.4565L15.4601 26.2814C15.5978 26.4218 15.7849 26.5 15.9798 26.5C15.9866 26.5 15.9935 26.5 16.0004 26.4995C16.2026 26.4935 16.3931 26.4039 16.5278 26.2505L25.3133 16.2443C25.5837 15.9365 25.5572 15.4644 25.2545 15.1895C24.9509 14.9151 24.4876 14.9419 24.2167 15.2492Z" fill="white"/>
</svg>
