<svg width="9" height="9" viewBox="0 0 9 9" fill="none" xmlns="http://www.w3.org/2000/svg">
<path d="M7.33858 1.70544H1.86962C1.74619 1.70544 1.64488 1.66585 1.56569 1.58666C1.48651 1.50747 1.44691 1.40617 1.44691 1.28274C1.44691 1.15931 1.48651 1.058 1.56569 0.978811C1.64488 0.899625 1.74619 0.860031 1.86962 0.860031H7.76128C7.88471 0.860031 7.98602 0.899625 8.06521 0.978811C8.14439 1.058 8.18399 1.15931 8.18399 1.28274V7.20061C8.18399 7.32404 8.14439 7.42535 8.06521 7.50454C7.98602 7.58372 7.88471 7.62332 7.76128 7.62332C7.63785 7.62332 7.53654 7.58372 7.45736 7.50454C7.37817 7.42535 7.33858 7.32404 7.33858 7.20061V1.70544ZM7.45736 0.978811C7.54556 0.899625 7.64687 0.860031 7.76128 0.860031C7.87569 0.860031 7.97475 0.901879 8.05844 0.985575C8.14214 1.06927 8.18399 1.16832 8.18399 1.28274C8.18399 1.39715 8.14439 1.49846 8.06521 1.58666L0.879218 8.77265C0.791014 8.85184 0.689705 8.89143 0.575293 8.89143C0.460881 8.89143 0.361827 8.84958 0.278131 8.76589C0.194436 8.68219 0.152588 8.58314 0.152588 8.46873C0.152588 8.35431 0.192181 8.25301 0.271368 8.1648L7.45736 0.978811Z" fill="white"/>
</svg>
